<?xml version="1.0" encoding="UTF-8"?> <svg xmlns="http://www.w3.org/2000/svg" id="Layer_1" data-name="Layer 1" viewBox="0 0 2096.17 328.61" style="&#10; fill: #f2f2f2;&#10;"><title>background</title><path d="M93.31,156.49a8,8,0,0,0-6.22-.39,8,8,0,0,0-4-4.75,8.25,8.25,0,0,0-11,3.81c-1.42,2.84-1.07,7,1,12.49a52.61,52.61,0,0,0,3.31,6.91,2.39,2.39,0,0,0,2.33,1.17,53.13,53.13,0,0,0,7.51-1.49c5.63-1.57,9.21-3.81,10.63-6.64a8.26,8.26,0,0,0-3.54-11.11ZM78.56,172.67c-3-5.62-5.19-13.3-3.56-16.54a4.37,4.37,0,0,1,5.5-2.25c1.33.43,4.22,2.81,3.12,5-.74,1.49-.48,3.21.43,3.45,1.15.3,2.08-.34,2.82-1.82,1.1-2.2,4.54-1.46,6-.35,1.85,1.38,2.85,3.66,1.76,5.85-1.62,3.24-9.79,5.68-16.09,6.66Z" transform="translate(88.17 34.67)"></path><path d="M96.94,141.79l.87-1.75,3.17,1.59a2.41,2.41,0,0,0,3.22-1.07l5.32-10.62a2.4,2.4,0,0,0-1.07-3.22L97.83,121.4a2.39,2.39,0,0,0-3.22,1.07l-5.32,10.62a2.39,2.39,0,0,0,1.07,3.22l3.16,1.58-.87,1.75a29.23,29.23,0,0,0-39.49,32.9,2.42,2.42,0,0,0,1.28,1.67l37.69,18.88a2.38,2.38,0,0,0,2.1,0,28.92,28.92,0,0,0,13.59-13.32,29.22,29.22,0,0,0-10.88-38Zm-3.76-9.68L95,133a3.59,3.59,0,1,0,3.22-6.42l-1.85-.93L97,124.4l9.47,4.75-4.74,9.47-9.48-4.74.89-1.77Zm1,58.24L55.49,170.94A26.34,26.34,0,0,1,58,155a26.55,26.55,0,1,1,47.48,23.79,26.29,26.29,0,0,1-11.26,11.57Z" transform="translate(88.17 34.67)"></path><path d="M1108.39,256.89a8,8,0,0,0-6.22-.4,8,8,0,0,0-4-4.74,8.26,8.26,0,0,0-11,3.81c-1.42,2.84-1.07,7,1.05,12.49a53.3,53.3,0,0,0,3.3,6.91,2.49,2.49,0,0,0,1,.93,2.44,2.44,0,0,0,1.34.24,53.42,53.42,0,0,0,7.5-1.49c5.64-1.57,9.21-3.81,10.63-6.64a8.25,8.25,0,0,0-3.54-11.11Zm-14.74,16.17c-3-5.61-5.19-13.29-3.57-16.53a4.37,4.37,0,0,1,5.5-2.25c1.33.43,4.22,2.81,3.12,5-.74,1.49-.48,3.21.43,3.45,1.16.3,2.08-.34,2.82-1.82,1.1-2.2,4.55-1.46,6-.35,1.85,1.38,2.86,3.66,1.76,5.85-1.62,3.23-9.79,5.68-16.08,6.65Z" transform="translate(88.17 34.67)"></path><path d="M1112,242.19l.88-1.75,3.16,1.58a2.39,2.39,0,0,0,3.22-1.07l5.32-10.62a2.39,2.39,0,0,0-1.07-3.22l-10.62-5.32a2.41,2.41,0,0,0-3.22,1.07l-5.32,10.62a2.4,2.4,0,0,0,1.07,3.22l3.17,1.59-.88,1.75a29.21,29.21,0,0,0-39.48,32.9,2.41,2.41,0,0,0,1.27,1.67l37.69,18.88a2.42,2.42,0,0,0,2.1,0,29.21,29.21,0,0,0,2.71-51.32Zm-3.76-9.68,1.85.92a3.59,3.59,0,1,0,3.21-6.42l-1.84-.93.64-1.28,9.48,4.74-4.75,9.48-9.48-4.75.89-1.76Zm1,58.24-38.74-19.41a26.56,26.56,0,1,1,38.74,19.41Z" transform="translate(88.17 34.67)"></path><path d="M1438.4,86.55a8,8,0,0,0-6.22-.4,8,8,0,0,0-4-4.74,8.26,8.26,0,0,0-11,3.81c-1.42,2.84-1.07,7,1.05,12.49a53.3,53.3,0,0,0,3.3,6.91,2.53,2.53,0,0,0,1,.93,2.36,2.36,0,0,0,1.34.23,52.29,52.29,0,0,0,7.51-1.48c5.63-1.57,9.21-3.81,10.63-6.65a8.25,8.25,0,0,0-3.54-11.1Zm-14.75,16.17c-3-5.61-5.19-13.29-3.56-16.53a4.36,4.36,0,0,1,5.5-2.25c1.33.43,4.22,2.81,3.12,5-.74,1.49-.48,3.21.43,3.45,1.15.3,2.08-.34,2.82-1.83,1.1-2.19,4.54-1.45,6-.35,1.85,1.39,2.85,3.67,1.76,5.86-1.62,3.23-9.79,5.68-16.09,6.65Z" transform="translate(88.17 34.67)"></path><path d="M1442,71.85l.87-1.75,3.17,1.58a2.39,2.39,0,0,0,3.22-1.07L1454.61,60a2.41,2.41,0,0,0-1.07-3.22l-10.62-5.32a2.4,2.4,0,0,0-3.22,1.07l-5.32,10.62a2.4,2.4,0,0,0,1.07,3.22l3.16,1.59-.87,1.75a29.22,29.22,0,0,0-39.49,32.89,2.42,2.42,0,0,0,1.28,1.68l37.69,18.87a2.38,2.38,0,0,0,2.1,0A29.22,29.22,0,0,0,1442,71.85Zm-3.76-9.68,1.84.92a3.59,3.59,0,1,0,3.22-6.42l-1.84-.93.64-1.28,9.48,4.74-4.75,9.48-9.48-4.75.89-1.76Zm1,58.24L1400.58,101a26.55,26.55,0,1,1,38.74,19.41Z" transform="translate(88.17 34.67)"></path><path d="M573.63,118.33a18.62,18.62,0,0,1-10.6-1l-.54-.22a18.62,18.62,0,0,1-8.36-6.6,9.8,9.8,0,0,1-1.15-9.19c1.86-4.62,6.14-8,8.53-9.66A28.3,28.3,0,0,1,566,89.12a11.38,11.38,0,0,1,1.62-.6l14.19-36.69c1.07-2.67,4.63-3.66,8.11-2.27s5.35,4.58,4.28,7.26L579.09,93.13a11.75,11.75,0,0,1,.75,1.54,29.37,29.37,0,0,1,1.5,4.94c.6,2.82,1.33,8.25-.52,12.87a9.82,9.82,0,0,1-7.19,5.85Zm3.11-26.93,1.13-2.72-6.3-2.52-1.06,2.74,6.23,2.5Zm12.12-39.2c-2.1-.85-4-.32-4.41.67L572.6,83.51,579,86.06l12.62-30.31c.4-1-.61-2.71-2.71-3.55ZM576.58,94.45l-.47,8.87a1.42,1.42,0,0,1-2.83.07s.44-10.13.44-10.15l-2.3-.92-6.8,7.31a1.41,1.41,0,1,1-2-2l5.9-6.42c-1.9.43-10.33,4.74-12.9,11.16a7,7,0,0,0,.88,6.58,15.91,15.91,0,0,0,7.09,5.54l.45.18a15.82,15.82,0,0,0,9,.9,7,7,0,0,0,5.19-4.14c2.58-6.43-.53-15.37-1.6-17Z" transform="translate(88.17 34.67)"></path><path d="M1532.05,257.87a18.71,18.71,0,0,1-10.6-1l-.54-.21a18.75,18.75,0,0,1-8.36-6.6,9.81,9.81,0,0,1-1.15-9.19c1.86-4.63,6.14-8,8.53-9.67a28.3,28.3,0,0,1,4.49-2.53,13,13,0,0,1,1.62-.59l14.19-36.7c1.07-2.66,4.63-3.66,8.11-2.26s5.35,4.57,4.28,7.25l-15.11,36.31a13.27,13.27,0,0,1,.76,1.55,29,29,0,0,1,1.49,4.93c.6,2.83,1.33,8.25-.52,12.88a9.82,9.82,0,0,1-7.19,5.85Zm3.11-26.94,1.13-2.71-6.3-2.53-1.06,2.74,6.23,2.5Zm12.12-39.2c-2.1-.84-4-.31-4.41.67L1531,223.05l6.36,2.55L1550,195.28c.4-1-.61-2.71-2.71-3.55ZM1535,234l-.47,8.88a1.42,1.42,0,1,1-2.83.06s.44-10.12.44-10.15l-2.3-.92-6.8,7.32a1.42,1.42,0,0,1-2-2l5.9-6.41c-1.9.42-10.32,4.73-12.9,11.15a7,7,0,0,0,.89,6.59A15.81,15.81,0,0,0,1522,254l.45.18a15.83,15.83,0,0,0,9,.9,7,7,0,0,0,5.19-4.14c2.58-6.42-.53-15.36-1.6-17Z" transform="translate(88.17 34.67)"></path><path d="M1277.45,66.88a18.79,18.79,0,0,1-10.6-1l-.55-.22a18.71,18.71,0,0,1-8.35-6.6,9.81,9.81,0,0,1-1.15-9.19c1.86-4.63,6.14-8,8.52-9.66a28.81,28.81,0,0,1,4.5-2.53,11.79,11.79,0,0,1,1.61-.6L1285.63.38c1.07-2.67,4.63-3.66,8.1-2.27s5.36,4.58,4.28,7.26l-15.11,36.3a10.69,10.69,0,0,1,.76,1.55,29.09,29.09,0,0,1,1.5,4.94c.6,2.82,1.33,8.25-.53,12.87a9.79,9.79,0,0,1-7.18,5.85Zm3.1-26.94,1.13-2.71-6.29-2.52-1.06,2.74,6.22,2.49ZM1292.67.74c-2.1-.84-4-.31-4.4.68l-11.86,30.64,6.36,2.55,12.62-30.32c.4-1-.62-2.7-2.72-3.55ZM1280.4,43l-.47,8.87a1.42,1.42,0,0,1-2.84.07s.44-10.13.44-10.15l-2.3-.93-6.79,7.32a1.42,1.42,0,1,1-2-2l5.89-6.41c-1.89.43-10.32,4.73-12.9,11.16a7,7,0,0,0,.89,6.58,15.85,15.85,0,0,0,7.09,5.54l.45.18a15.88,15.88,0,0,0,8.94.9A7,7,0,0,0,1282,60c2.58-6.43-.53-15.37-1.6-17Z" transform="translate(88.17 34.67)"></path><path d="M1818.93,63.05a18.76,18.76,0,0,1,10.23,3l.49.32a18.78,18.78,0,0,1,7,8,9.79,9.79,0,0,1-.58,9.24c-2.68,4.21-7.51,6.77-10.16,7.93a28.75,28.75,0,0,1-4.89,1.65,12.47,12.47,0,0,1-1.69.29l-20.74,33.44c-1.54,2.42-5.22,2.74-8.38.72s-4.42-5.48-2.86-7.92l21.56-32.89a11.58,11.58,0,0,1-.46-1.66,28.26,28.26,0,0,1-.56-5.13c-.07-2.88.22-8.35,2.9-12.55a9.79,9.79,0,0,1,8.14-4.42Zm-8,25.9-1.61,2.46,5.71,3.64,1.55-2.5L1810.9,89Zm-19.16,36.28c1.91,1.22,3.88,1,4.45.16l17.32-27.93-5.78-3.68-18,27.46c-.58.91.1,2.77,2,4ZM1811.62,86l2.09-8.64a1.43,1.43,0,0,1,1.63-1.17,1.41,1.41,0,0,1,1.17,1.63s-2.3,9.87-2.31,9.89l2.09,1.34,8-5.94a1.42,1.42,0,0,1,1.59,2.35l-7,5.21c1.94-.07,11-2.75,14.74-8.58a7.06,7.06,0,0,0,.35-6.64,15.93,15.93,0,0,0-5.94-6.75l-.42-.26a15.9,15.9,0,0,0-8.62-2.54,7,7,0,0,0-5.87,3.11c-3.72,5.84-2.32,15.2-1.56,17Z" transform="translate(88.17 34.67)"></path><path d="M209.65,213.53l4.45-4.32,6,4.77-3.26,5.28-7.61,9.5a.77.77,0,0,1-1.07.14,1.14,1.14,0,0,1-.11-.11.83.83,0,0,1,0-1l1.86-2.32a3.06,3.06,0,0,0-.63-4.41,3.12,3.12,0,0,0-4.22.69L203.23,224a.76.76,0,0,1-1.07.14l-.11-.1a.83.83,0,0,1,0-1.05l7.56-9.44Zm13.26-11.94,2.66,2.13a.76.76,0,0,1,.17,1l-.85,1.39-4.17-3.34,1.17-1.14a.77.77,0,0,1,1,0Zm-.84,9.11-1.21,2-5.65-4.53,1.65-1.61,5.21,4.17Zm.8-1.31-4.9-3.93,1.66-1.6,4.45,3.56-1.21,2Zm-18.69,18.29a1.53,1.53,0,1,1,2.15-.23,1.52,1.52,0,0,1-2.15.23ZM208,225.4a2.94,2.94,0,0,0-2.38-1.91l.66-.83a1.62,1.62,0,0,1,2.17-.39,1.54,1.54,0,0,1,.3,2.2l-.75.93Zm-7.06-.34a2.22,2.22,0,0,0,1.26.71,3.06,3.06,0,0,0,4.33,3.47,1.88,1.88,0,0,0,.37.6,2.29,2.29,0,0,0,3.23.18,2.06,2.06,0,0,0,.28-.31l7.64-9.53.06-.07,9-14.58a2.29,2.29,0,0,0-.53-3l-2.67-2.14a2.29,2.29,0,0,0-3,.14l-12.26,11.94-.06.07L200.9,222a2.36,2.36,0,0,0,0,3.05Z" transform="translate(88.17 34.67)"></path><path d="M221.56,195.3a2.69,2.69,0,0,1,3.58-.17l6.23,5a2.7,2.7,0,0,1,.62,3.53l-10.25,16.41-14.45,17.79c-2.29-3.43-10.19-9.18-14.13-10.71l14.59-18.3,13.81-13.54Zm-18.65,46.11-.32-.5c-1.26-2.28-8.51-8.09-11-8.83l-.56-.2,1.42-3.28c3.44,1.33,11.78,7.63,13.74,10.57l-3.27,2.24Zm-13.25-8.11,1.33.47c2.58.75,8.78,5.72,10.08,8.08l.74,1.19a.89.89,0,0,0,1.13.33l3.64-1.68a.9.9,0,0,0,.33-.25l16.27-20.3.06-.08,10.25-16.48a4.48,4.48,0,0,0-1-5.88l-6.23-5a4.48,4.48,0,0,0-6,.28L206.45,207.6a.27.27,0,0,0-.07.08L190.11,228a1,1,0,0,0-.17.37l-.84,3.92a.88.88,0,0,0,.56,1Z" transform="translate(88.17 34.67)"></path><path d="M949.44,14.88l4.44-4.33,6,4.78-3.25,5.28L949,30.11a.76.76,0,0,1-1.07.13.52.52,0,0,1-.11-.1.83.83,0,0,1,0-1.05l1.87-2.32a3.06,3.06,0,1,0-4.85-3.72L943,25.33a.76.76,0,0,1-1.07.14.57.57,0,0,1-.11-.11.81.81,0,0,1,0-1l7.57-9.44ZM962.7,2.94l2.65,2.13a.76.76,0,0,1,.18,1l-.86,1.39L960.5,4.12,961.68,3a.76.76,0,0,1,1,0Zm-.85,9.11-1.21,2L955,9.49l1.66-1.61,5.2,4.17Zm.81-1.31-4.9-3.93,1.66-1.61,4.45,3.57-1.21,2ZM944,29a1.53,1.53,0,1,1,2.15-.24A1.54,1.54,0,0,1,944,29Zm3.79-2.29a3,3,0,0,0-2.38-1.91L946,24a1.62,1.62,0,0,1,2.16-.39,1.59,1.59,0,0,1,.63,1,1.51,1.51,0,0,1-.33,1.16l-.74.93Zm-7.06-.33a2.22,2.22,0,0,0,1.26.71,3.05,3.05,0,0,0,2.23,3.7,3.08,3.08,0,0,0,2.09-.23,2.25,2.25,0,0,0,3.61.78,4.12,4.12,0,0,0,.28-.31l7.64-9.53.06-.07,9-14.59a2.28,2.28,0,0,0-.54-3l-2.66-2.13a2.28,2.28,0,0,0-3,.13l-12.27,12a.18.18,0,0,0-.05.07l-7.6,9.47a2.36,2.36,0,0,0,0,3.05Z" transform="translate(88.17 34.67)"></path><path d="M961.35-3.36a2.69,2.69,0,0,1,3.58-.16l6.23,5A2.68,2.68,0,0,1,971.77,5L961.53,21.41,947.08,39.19c-2.29-3.42-10.2-9.18-14.14-10.71l14.59-18.29L961.35-3.36ZM942.69,42.76l-.31-.51c-1.27-2.27-8.51-8.08-11-8.82l-.57-.2L932.23,30C935.67,31.27,944,37.57,946,40.52l-3.27,2.24Zm-13.24-8.11,1.32.47c2.59.75,8.79,5.72,10.08,8.07l.75,1.2a.9.9,0,0,0,1.12.33L946.37,43a1,1,0,0,0,.33-.25L963,22.49l.07-.08L973.27,5.93a4.49,4.49,0,0,0-1-5.89l-6.23-5a4.47,4.47,0,0,0-6,.28L946.23,8.94l-.06.09L929.9,29.32a.89.89,0,0,0-.18.38l-.84,3.92a.9.9,0,0,0,.57,1Z" transform="translate(88.17 34.67)"></path><path d="M1673.18,212.74l4.44-4.33,6,4.78-3.25,5.28-7.61,9.5a.77.77,0,0,1-1.08.13.47.47,0,0,1-.1-.1.83.83,0,0,1,0-1.05l1.86-2.32a3.07,3.07,0,0,0-.62-4.41,3.12,3.12,0,0,0-4.22.69l-1.83,2.28a.77.77,0,0,1-1.07.14,1.14,1.14,0,0,1-.11-.11.81.81,0,0,1,0-1l7.57-9.44Zm13.26-11.94,2.65,2.13a.76.76,0,0,1,.18,1l-.86,1.39-4.17-3.35,1.17-1.13a.78.78,0,0,1,1,0Zm-.85,9.11-1.21,2-5.65-4.52,1.66-1.62,5.2,4.18Zm.81-1.31-4.9-3.93,1.66-1.61,4.45,3.57-1.21,2Zm-18.69,18.29a1.53,1.53,0,1,1,2.15-.24,1.53,1.53,0,0,1-2.15.24Zm3.79-2.29a3,3,0,0,0-2.39-1.91l.67-.83a1.62,1.62,0,0,1,2.16-.39,1.57,1.57,0,0,1,.63,1,1.55,1.55,0,0,1-.33,1.16l-.74.93Zm-7.06-.33a2.35,2.35,0,0,0,1.25.71,3.06,3.06,0,0,0,4.33,3.47,2.07,2.07,0,0,0,.37.6,2.29,2.29,0,0,0,3.24.17,2.68,2.68,0,0,0,.28-.3l7.64-9.53.06-.07,9-14.59a2.28,2.28,0,0,0-.53-3l-2.66-2.13a2.28,2.28,0,0,0-3,.13l-12.27,12a.18.18,0,0,0,0,.07l-7.6,9.47a2.36,2.36,0,0,0,0,3.05Z" transform="translate(88.17 34.67)"></path><path d="M1685.09,194.5a2.68,2.68,0,0,1,3.58-.16l6.22,5a2.68,2.68,0,0,1,.62,3.53l-10.24,16.41-14.45,17.78c-2.29-3.42-10.2-9.18-14.14-10.71l14.59-18.29,13.82-13.55Zm-18.66,46.12-.32-.51c-1.26-2.28-8.5-8.08-11-8.82l-.57-.2,1.43-3.28c3.44,1.32,11.78,7.62,13.73,10.56l-3.27,2.25Zm-13.24-8.11,1.32.46c2.59.76,8.79,5.73,10.08,8.08l.75,1.2a.9.9,0,0,0,1.12.33l3.65-1.68a1,1,0,0,0,.33-.26l16.26-20.29.07-.09L1697,203.79a4.48,4.48,0,0,0-1-5.89l-6.23-5a4.48,4.48,0,0,0-6,.27L1670,206.8l-.06.09-16.27,20.29a.89.89,0,0,0-.18.38l-.84,3.92a.9.9,0,0,0,.57,1Z" transform="translate(88.17 34.67)"></path><path d="M709.34,76.84l-1.52-.59,7.12-18.37a1.36,1.36,0,0,0-.77-1.74l-.16-.06L717.52,47a12.78,12.78,0,0,0,.68-2.72c.36-3.08-1.1-4.13-2-4.48-1.14-.44-2.77.11-5.44,1.84-1.65,1.07-3.08,2.2-3.14,2.25a1.36,1.36,0,0,0-.42.56l-3,7.8-.16-.06a1.33,1.33,0,0,0-1.73.76l-7.12,18.38-1.53-.59a1.33,1.33,0,0,0-1.73.76l-6.44,16.62a4.67,4.67,0,0,0,2.66,6l9.53,3.69a4.66,4.66,0,0,0,6-2.66l6.43-16.61a1.34,1.34,0,0,0-.76-1.74Zm.22-31.06c2.34-1.81,4.92-3.36,5.73-3.43.55.38.22,2.43-.26,3.7l-3.52,9.06-4.84-1.87,2.89-7.46Zm-5.27,9.41,7.67,3-6.64,17.13-7.67-3,6.64-17.13Zm-3.12,39a2,2,0,0,1-2.55,1.13l-9.53-3.69A2,2,0,0,1,688,89.11l5.95-15.37,13.21,5.12-6,15.36Z" transform="translate(88.17 34.67)"></path><path d="M896.34,272.63l-1.52-.59,7.12-18.38a1.34,1.34,0,0,0-.77-1.73l-.16-.07,3.51-9.06a12.39,12.39,0,0,0,.68-2.72c.36-3.08-1.1-4.13-2-4.48-1.14-.44-2.77.11-5.44,1.84-1.65,1.07-3.08,2.2-3.14,2.25a1.33,1.33,0,0,0-.42.57l-3,7.79L891,248a1.33,1.33,0,0,0-1.73.76l-7.12,18.38-1.53-.59a1.33,1.33,0,0,0-1.73.76l-6.44,16.62a4.67,4.67,0,0,0,2.66,6l9.53,3.69a4.66,4.66,0,0,0,6-2.66l6.43-16.61a1.33,1.33,0,0,0-.76-1.73Zm.22-31.06c2.34-1.82,4.92-3.36,5.73-3.44.55.38.22,2.43-.26,3.7l-3.52,9.06L893.67,249l2.89-7.45Zm-5.27,9.4,7.67,3-6.64,17.13-7.67-3L891.29,251Zm-3.12,39a2,2,0,0,1-2.55,1.12l-9.53-3.69a2,2,0,0,1-1.13-2.55l5.95-15.37,13.21,5.12-6,15.37Z" transform="translate(88.17 34.67)"></path><path d="M438.6,97.75a.75.75,0,0,1-1-.2l-.88-1.29a.75.75,0,0,1,1.24-.84l.88,1.29a.75.75,0,0,1-.2,1Z" transform="translate(88.17 34.67)"></path><path d="M452.17,88.47a.73.73,0,0,1-1-.2L450.29,87a.75.75,0,1,1,1.24-.84l.84,1.24a.74.74,0,0,1-.2,1Z" transform="translate(88.17 34.67)"></path><path d="M446.21,94.32a22.42,22.42,0,1,0,31.13,6,22.43,22.43,0,0,0-31.13-6Zm26,38.33a23.91,23.91,0,1,1,6.36-33.21,23.93,23.93,0,0,1-6.36,33.21Z" transform="translate(88.17 34.67)"></path><path d="M451.32,87.23a.75.75,0,0,1-.85,0,.74.74,0,0,1-.18-1,22.41,22.41,0,1,0-13.17,8.93.75.75,0,0,1,.9.55.75.75,0,0,1-.56.9,23.91,23.91,0,1,1,14.05-9.52.65.65,0,0,1-.19.18Z" transform="translate(88.17 34.67)"></path><path d="M445.81,121.68a.73.73,0,0,1-1-.2,15.7,15.7,0,0,1,4.17-21.79.75.75,0,1,1,.84,1.24A14.2,14.2,0,0,0,446,120.64a.75.75,0,0,1-.2,1Z" transform="translate(88.17 34.67)"></path><path d="M468.65,126.05a.75.75,0,1,1-.84-1.24,14.22,14.22,0,0,0,3.78-19.72.74.74,0,1,1,1.23-.84,15.71,15.71,0,0,1-4.17,21.8Z" transform="translate(88.17 34.67)"></path><path d="M429.69,86.45a.73.73,0,0,1-.56.12.74.74,0,0,1-.59-.88l5.06-26.41a.74.74,0,0,1,.87-.6.75.75,0,0,1,.59.88L430,86a.71.71,0,0,1-.31.47Z" transform="translate(88.17 34.67)"></path><path d="M437.69,80.38a.73.73,0,0,1-.56.11.75.75,0,0,1-.59-.87l2.25-11.74a.74.74,0,1,1,1.46.28L438,79.9a.77.77,0,0,1-.32.48Z" transform="translate(88.17 34.67)"></path><path d="M424.48,77.85a.77.77,0,0,1-.56.11.75.75,0,0,1-.59-.87l2.25-11.74a.75.75,0,1,1,1.47.28L424.8,77.37a.77.77,0,0,1-.32.48Z" transform="translate(88.17 34.67)"></path><path d="M1963.9,90.37a.75.75,0,0,1-1-.2l-.88-1.29a.75.75,0,0,1,1.24-.84l.88,1.29a.75.75,0,0,1-.2,1Z" transform="translate(88.17 34.67)"></path><path d="M1977.47,81.09a.74.74,0,0,1-1-.2l-.84-1.23a.75.75,0,1,1,1.24-.84l.84,1.23a.75.75,0,0,1-.2,1Z" transform="translate(88.17 34.67)"></path><path d="M1971.51,86.94a22.42,22.42,0,1,0,31.14,6,22.43,22.43,0,0,0-31.14-6Zm26,38.33a23.91,23.91,0,1,1,6.36-33.21,23.94,23.94,0,0,1-6.36,33.21Z" transform="translate(88.17 34.67)"></path><path d="M1976.63,79.85a.77.77,0,0,1-.86,0,.76.76,0,0,1-.18-1,22.42,22.42,0,1,0-13.17,8.92.75.75,0,0,1,.9.56.74.74,0,0,1-.55.9,23.91,23.91,0,1,1,14-9.52,1.07,1.07,0,0,1-.19.18Z" transform="translate(88.17 34.67)"></path><path d="M1971.11,114.3a.74.74,0,0,1-1-.2,15.69,15.69,0,0,1,4.18-21.79.75.75,0,0,1,.83,1.24,14.2,14.2,0,0,0-3.77,19.71.75.75,0,0,1-.2,1Z" transform="translate(88.17 34.67)"></path><path d="M1994,118.67a.75.75,0,0,1-.84-1.24,14.21,14.21,0,0,0,3.78-19.72.75.75,0,0,1,1.24-.84,15.72,15.72,0,0,1-4.18,21.8Z" transform="translate(88.17 34.67)"></path><path d="M1955,79.07a.72.72,0,0,1-.56.12.75.75,0,0,1-.59-.88l5.06-26.41a.75.75,0,1,1,1.47.28l-5.06,26.41a.74.74,0,0,1-.32.48Z" transform="translate(88.17 34.67)"></path><path d="M1963,73a.78.78,0,0,1-.56.11.75.75,0,0,1-.6-.87l2.25-11.74a.75.75,0,1,1,1.47.28l-2.25,11.74a.8.8,0,0,1-.31.48Z" transform="translate(88.17 34.67)"></path><path d="M1949.79,70.47a.78.78,0,0,1-.56.11.75.75,0,0,1-.6-.87L1950.88,58a.75.75,0,1,1,1.47.28L1950.1,70a.8.8,0,0,1-.31.48Z" transform="translate(88.17 34.67)"></path><path d="M171.89,37a.89.89,0,0,0-.91.48l-.77,1.43-6.91-3.71.77-1.44a.83.83,0,0,0-.1-1,11.58,11.58,0,0,1,8.75-18.86,5.48,5.48,0,0,0,4.17-2.31l1.94,1L171,27.16a1,1,0,1,0,1.68.91l7.89-14.66,1.94,1.05a5.15,5.15,0,0,0,.37,4.76,11.61,11.61,0,0,1-11,17.77ZM183.67-3.26a1.17,1.17,0,0,1,1.56-.47l5.47,3a1.15,1.15,0,0,1,.47,1.55l-6.76,12.55-7.49-4,6.75-12.54Zm.81,21.5a3.57,3.57,0,0,1-.3-2.88l.08.05a.91.91,0,0,0,1.3-.39l7.21-13.39a3.07,3.07,0,0,0-1.25-4.14l-5.47-2.95a3.08,3.08,0,0,0-4.14,1.24L174.7,9.17a.91.91,0,0,0,.39,1.3l.08,0a3.33,3.33,0,0,1-2.56,1.34,13.33,13.33,0,0,0-12,8A13.58,13.58,0,0,0,162,33.31l-.95,1.77a.9.9,0,0,0,.39,1.29L170.06,41a.9.9,0,0,0,1.29-.39l1-1.77a13.49,13.49,0,0,0,12.18-20.6Z" transform="translate(88.17 34.67)"></path><path d="M823,78a.91.91,0,0,0-.91.49l-.77,1.43-6.91-3.72.77-1.43a.83.83,0,0,0-.09-1,11.68,11.68,0,0,1-1.57-12,11.54,11.54,0,0,1,10.31-6.83A5.49,5.49,0,0,0,828,52.57l1.93,1-7.84,14.57a1,1,0,1,0,1.68.9l7.89-14.65,1.94,1a5.15,5.15,0,0,0,.37,4.76A11.61,11.61,0,0,1,823,78Zm11.79-40.25a1.17,1.17,0,0,1,1.55-.47l5.47,2.95a1.16,1.16,0,0,1,.47,1.56l-6.75,12.54-7.5-4,6.76-12.55Zm.8,21.51a3.58,3.58,0,0,1-.3-2.88l.09,0a.89.89,0,0,0,1.29-.38l7.21-13.39a3.09,3.09,0,0,0-1.24-4.15l-5.48-2.94A3.06,3.06,0,0,0,833,36.8l-7.21,13.39a.9.9,0,0,0,.39,1.29l.08.05a3.33,3.33,0,0,1-2.56,1.33,13.34,13.34,0,0,0-12,8,13.61,13.61,0,0,0,1.43,13.48l-1,1.77a.91.91,0,0,0,.39,1.3L821.13,82a.9.9,0,0,0,1.29-.39l1-1.77a13.48,13.48,0,0,0,12.17-20.59Z" transform="translate(88.17 34.67)"></path><path d="M658.8,265.41a.93.93,0,0,0-.92.49l-.77,1.43-6.9-3.72.77-1.43a.84.84,0,0,0-.1-1,11.66,11.66,0,0,1-1.56-12,11.54,11.54,0,0,1,10.3-6.83A5.49,5.49,0,0,0,663.8,240l1.94,1-7.85,14.57a1,1,0,0,0,1.69.9l7.89-14.65,1.93,1a5.2,5.2,0,0,0,.37,4.77,11.6,11.6,0,0,1-11,17.76Zm11.78-40.25a1.16,1.16,0,0,1,1.55-.46l5.48,2.94a1.17,1.17,0,0,1,.46,1.56l-6.75,12.54-7.49-4,6.75-12.55Zm.81,21.51a3.5,3.5,0,0,1-.3-2.88l.08.05a.91.91,0,0,0,1.3-.39l7.2-13.39a3.08,3.08,0,0,0-1.24-4.15L673,223a3.09,3.09,0,0,0-4.15,1.24L661.6,237.6a.91.91,0,0,0,.39,1.3l.09,0a3.36,3.36,0,0,1-2.57,1.34,13.32,13.32,0,0,0-12,8,13.61,13.61,0,0,0,1.44,13.48l-1,1.76a.9.9,0,0,0,.38,1.3l8.59,4.62a.91.91,0,0,0,1.3-.39l1-1.76a13.49,13.49,0,0,0,12.18-20.6Z" transform="translate(88.17 34.67)"></path><path d="M46.45,47a4.88,4.88,0,0,1,7.09,6.7L40.13,67.85,33,61.15,46.45,47ZM2.93,97.58l2.45-.07L5.45,100A4.89,4.89,0,0,1,4,99a4.81,4.81,0,0,1-1-1.43Zm2.31-5,.07,2.44-2.86.08a4.91,4.91,0,0,1,.85-2.46l1.94-.06Zm2.72-5,2,0,.07,2.44-2.45.07-.05-2,.4-.44Zm4.75-5,2-.06L14.8,85l-2.44.07-.06-2,.41-.43Zm6.76-5.08L19.54,80l-2.44.07-.06-2,.41-.43,2-.06Zm4.74-5L24.28,75l-2.44.07-.06-2,.41-.43,2-.05Zm7.25-2.65-.07-2.44,2.44-.07.07,2.44-2.44.07Zm2.16,4.82-2,.06-.07-2.44L34,72.29l.06,2-.41.43Zm-6.9.2-.07-2.44,2.44-.07.07,2.44-2.44.07Zm2.16,4.82-2,.06-.07-2.44,2.44-.07.05,2-.4.43ZM22,80l-.07-2.43,2.44-.07.07,2.44L22,80Zm2.16,4.83-2,0-.06-2.44,2.44-.06.05,2-.4.43Zm-6.9.19-.07-2.44,2.44-.07.07,2.44L17.24,85Zm2.15,4.82-2,.06-.06-2.44,2.43-.07.06,2-.41.43Zm-6.9.2-.06-2.44,2.43-.07.07,2.44L12.49,90Zm2.16,4.82-2,.06-.07-2.44L15,92.36l.06,2-.41.43ZM7.75,95l-.07-2.43,2.44-.07.07,2.44L7.75,95Zm.07,2.44,2.44-.06.06,1.94a4.94,4.94,0,0,1-2.42,1l-.08-2.87ZM38.36,69.73l-2,0-.06-2.21,2.18,2.06-.1.1Zm-7-6.81L33.54,65,31.32,65l-.05-2,.09-.1Zm-4.43,4.69,2-.06L29,70l-2.44.07-.06-2,.41-.43ZM2.29,100.78a7.32,7.32,0,0,0,10.35-.29L55.32,55.34A7.33,7.33,0,0,0,44.67,45.28L28.81,62.07h0L2,90.43a7.32,7.32,0,0,0,.29,10.35Z" transform="translate(88.17 34.67)"></path><path d="M347.82,255.91a4.88,4.88,0,0,1-8.59-2.75,4.86,4.86,0,0,1,1.14-3.56L353,234.71l7.45,6.31-12.62,14.89ZM388.52,203l-2.44.2-.21-2.45a4.8,4.8,0,0,1,1.53.88,4.59,4.59,0,0,1,1.12,1.37Zm-2,5.06-.2-2.43,2.85-.23a4.78,4.78,0,0,1-.72,2.5l-1.93.16Zm-2.45,5.1-2,.17-.21-2.43,2.44-.2.16,2-.38.45Zm-4.46,5.27-2,.17-.2-2.44,2.44-.2.16,2-.38.45Zm-6.48,5.43-.2-2.43,2.43-.2.17,2-.38.45-2,.16Zm-4.46,5.27-.2-2.43,2.43-.2.17,2-.38.46-2,.16Zm-7.09,3,.2,2.43-2.44.2-.2-2.43,2.44-.2Zm-2.42-4.7,2-.17.2,2.44-2.43.2-.16-2,.38-.45Zm6.88-.57.2,2.43-2.43.2-.21-2.43,2.44-.2Zm-2.42-4.7,2-.16.21,2.43-2.44.2-.16-2,.38-.45Zm6.88-.57.2,2.44-2.43.2-.2-2.43,2.43-.21ZM368,216.94l2-.17.2,2.43-2.44.2-.16-2,.38-.45Zm6.88-.57.2,2.43-2.43.2-.2-2.43,2.43-.2Zm-2.42-4.7,2-.17.2,2.43-2.43.21-.17-2,.38-.45Zm6.88-.57.2,2.43-2.43.2-.2-2.43,2.43-.2ZM377,206.4l2-.16.2,2.43-2.43.2-.17-2,.38-.45Zm6.88-.57.21,2.43-2.44.21-.2-2.44,2.43-.2Zm-.2-2.43-2.43.2-.16-1.93a4.76,4.76,0,0,1,2.36-1.12l.23,2.85Zm-29,29.34,2-.17.18,2.21-2.28-1.94.09-.1Zm7.36,6.41-2.29-1.94,2.21-.18.17,2-.09.1Zm4.16-4.92-2,.17L364,232l2.43-.2.17,2-.39.45ZM389,199.77a7.33,7.33,0,0,0-10.32.85L338.51,248a7.32,7.32,0,0,0,11.17,9.46l14.93-17.62h0v0l25.22-29.76a7.32,7.32,0,0,0-.86-10.32Z" transform="translate(88.17 34.67)"></path><path d="M1573.51-30.23a4.87,4.87,0,0,1,3.19-1.94,4.85,4.85,0,0,1,3.63.89,4.77,4.77,0,0,1,1.94,3.19,4.84,4.84,0,0,1-.88,3.63L1569.86-8.71,1562-14.47l11.53-15.76Zm-36.85,55.67,2.43-.37.37,2.43a5,5,0,0,1-1.58-.77,5,5,0,0,1-1.22-1.29Zm1.68-5.2.38,2.41-2.83.44a4.8,4.8,0,0,1,.53-2.55l1.92-.3Zm2.08-5.26,2-.31.37,2.41-2.41.38-.31-2,.35-.48Zm4.08-5.57,2-.31.37,2.42-2.41.37-.31-2,.35-.48Zm6.07-5.88.38,2.41-2.41.38-.31-2,.35-.48,2-.31ZM1554.65-2,1555,.37l-2.41.38-.31-2,.35-.48,2-.31Zm6.86-3.53L1561.14-8l2.41-.37.37,2.41-2.41.37ZM1564.26-1l-2,.3-.37-2.41,2.41-.37.31,2-.35.48ZM1557.44,0l-.38-2.41,2.41-.37.38,2.41-2.41.37Zm2.74,4.52-2,.3-.37-2.41,2.41-.37.31,2-.35.48Zm-6.82,1.05L1553,3.16l2.42-.37.37,2.41-2.41.37Zm2.74,4.52-2,.31L1553.73,8l2.41-.37.31,2-.35.48Zm-6.82,1.05-.37-2.41,2.41-.37.37,2.41-2.41.37Zm2.75,4.52-2,.3-.37-2.41,2.41-.37.31,2-.35.48Zm-6.83,1.05-.37-2.41,2.41-.37.38,2.41-2.42.37Zm2.75,4.52-2,.3-.37-2.41,2.41-.37.31,2-.35.48Zm-6.82,1.05-.38-2.41,2.42-.37.37,2.41-2.41.37Zm.37,2.41,2.41-.37.3,1.92a4.77,4.77,0,0,1-2.27,1.28l-.44-2.83Zm26.83-31.32-2,.31L1566-8.51l2.42,1.77-.09.11Zm-7.79-5.87,2.42,1.77-2.19.34-.31-2,.08-.11Zm-3.81,5.2,2-.31.37,2.41-2.41.38-.31-2,.35-.48Zm-20.3,36a7.33,7.33,0,0,0,10.23-1.59L1583.36-23a7.32,7.32,0,0,0-1.58-10.23,7.28,7.28,0,0,0-5.45-1.33,7.34,7.34,0,0,0-4.79,2.91L1557.9-13h0l-23,31.48a7.33,7.33,0,0,0,1.58,10.24Z" transform="translate(88.17 34.67)"></path><path d="M1093.31,21.81l-6.15,3.2-4.58-8.83,1-.53a1.51,1.51,0,0,0-1.39-2.67l-1,.53-.84-1.61,3.44-1.78a1.51,1.51,0,0,0-1.39-2.67L1079,9.23l-.84-1.6,3.44-1.79a1.51,1.51,0,0,0-1.39-2.67L1076.75,5l-.84-1.6,3.44-1.78A1.51,1.51,0,0,0,1078-1.11L1074.53.67l-.84-1.6,3.43-1.78a1.51,1.51,0,0,0,.65-2,1.51,1.51,0,0,0-2-.65l-3.44,1.78-.83-1.6,1-.53a1.51,1.51,0,0,0,.64-2,1.51,1.51,0,0,0-2-.65L1066.38-6a1.51,1.51,0,0,0-.64,2,1.51,1.51,0,0,0,2,.64l1-.53.83,1.6L1066.2-.44a1.51,1.51,0,0,0,1.39,2.68L1071,.46l.83,1.6-3.43,1.78a1.51,1.51,0,0,0,1.39,2.68l3.43-1.78.83,1.6-3.43,1.78a1.51,1.51,0,1,0,1.39,2.67L1075.46,9l.83,1.61-3.43,1.78a1.51,1.51,0,1,0,1.39,2.67l3.43-1.78.83,1.61-1,.53a1.51,1.51,0,1,0,1.39,2.67l1-.53,4.58,8.83-6.15,3.19a1.5,1.5,0,0,0-.64,2l5.62,10.83a1.51,1.51,0,1,0,2.68-1.39l-4.93-9.49,12.3-6.39,14.71,28.35a2.1,2.1,0,0,1-.9,2.84l-8.56,4.44a2.1,2.1,0,0,1-2.84-.9l-4.37-8.42a1.51,1.51,0,0,0-2.68,1.39l4.37,8.42a5.13,5.13,0,0,0,6.91,2.19l8.56-4.44a5.14,5.14,0,0,0,2.18-6.91l-15.4-29.68a1.51,1.51,0,0,0-2-.65Z" transform="translate(88.17 34.67)"></path><path d="M1088,48.17a1.5,1.5,0,0,0,.74-.88,1.53,1.53,0,0,0-.1-1.15,1.5,1.5,0,0,0-.88-.74,1.53,1.53,0,0,0-1.15.1,1.5,1.5,0,0,0-.74.88,1.53,1.53,0,0,0,.1,1.15,1.5,1.5,0,0,0,.88.74,1.48,1.48,0,0,0,1.15-.1Z" transform="translate(88.17 34.67)"></path><path d="M1074.07,52a1.49,1.49,0,0,0-.94.66,1.53,1.53,0,0,0-.19,1.14,1.5,1.5,0,0,0,.67.94,1.51,1.51,0,0,0,2.27-1.62,1.54,1.54,0,0,0-.67-.93,1.52,1.52,0,0,0-1.14-.19Z" transform="translate(88.17 34.67)"></path><path d="M1082.6,63.49A2.12,2.12,0,0,1,1081,66l-2.06.47-1.84-8a1.51,1.51,0,0,0-2.94.68l1.85,8-4.41,1a2.12,2.12,0,0,1-2.53-1.58l-7.17-31.12,13.51-3.11,7.17,31.12Zm-19.68-34.42,8.81-2,.67,2.93-8.8,2-.68-2.93Zm13.3,0-.88.21-1-4.41a1.5,1.5,0,0,0-1.8-1.13l-11.75,2.71a1.51,1.51,0,0,0-1.13,1.8l1,4.41-.88.2a1.51,1.51,0,0,0-1.13,1.81l7.51,32.59a5.13,5.13,0,0,0,6.14,3.84l9.39-2.17a5.11,5.11,0,0,0,3.84-6.14L1078,30.22a1.52,1.52,0,0,0-1.81-1.13Z" transform="translate(88.17 34.67)"></path><path d="M1739.91-.88l-6.15,3.2-4.58-8.83,1-.53a1.5,1.5,0,0,0,.64-2,1.5,1.5,0,0,0-2-.64l-1,.53-.84-1.61,3.44-1.78a1.51,1.51,0,0,0,.64-2,1.5,1.5,0,0,0-2-.64l-3.43,1.78-.84-1.6,3.43-1.79a1.51,1.51,0,0,0,.65-2,1.52,1.52,0,0,0-2-.64l-3.44,1.78-.83-1.6,3.43-1.78a1.51,1.51,0,0,0,.65-2,1.51,1.51,0,0,0-2-.65L1721.13-22l-.83-1.6,3.43-1.78a1.51,1.51,0,0,0,.65-2,1.51,1.51,0,0,0-2-.65l-3.44,1.78-.83-1.6,1-.53a1.52,1.52,0,0,0,.64-2,1.51,1.51,0,0,0-2-.65L1713-28.65a1.51,1.51,0,0,0-.64,2,1.5,1.5,0,0,0,2,.64l1-.53.83,1.6-3.43,1.78a1.51,1.51,0,0,0-.65,2,1.52,1.52,0,0,0,2,.65l3.43-1.78.83,1.6L1715-18.85a1.5,1.5,0,0,0-.64,2,1.51,1.51,0,0,0,2,.65l3.43-1.78.83,1.6-3.43,1.78a1.5,1.5,0,0,0-.64,2,1.5,1.5,0,0,0,2,.64l3.43-1.78.83,1.61-3.43,1.78a1.5,1.5,0,0,0-.64,2,1.5,1.5,0,0,0,2,.64l3.43-1.78.83,1.61-1,.53a1.51,1.51,0,0,0-.65,2,1.51,1.51,0,0,0,2,.64l1-.53,4.58,8.83-6.15,3.19a1.5,1.5,0,0,0-.64,2l5.62,10.83a1.51,1.51,0,1,0,2.67-1.39l-4.92-9.49L1740,2.49l14.71,28.35a2.11,2.11,0,0,1-.9,2.84l-8.56,4.44a2.1,2.1,0,0,1-2.84-.9L1738,28.8a1.51,1.51,0,0,0-2.68,1.39l4.37,8.42a5.13,5.13,0,0,0,6.91,2.19l8.56-4.44a5.14,5.14,0,0,0,2.18-6.91L1742-.23a1.52,1.52,0,0,0-2-.65Z" transform="translate(88.17 34.67)"></path><path d="M1734.59,25.48a1.5,1.5,0,0,0,.74-.88,1.53,1.53,0,0,0-.1-1.15,1.5,1.5,0,0,0-.88-.74,1.53,1.53,0,0,0-1.15.1,1.5,1.5,0,0,0-.74.88,1.48,1.48,0,0,0,.1,1.15,1.5,1.5,0,0,0,2,.64Z" transform="translate(88.17 34.67)"></path><path d="M1720.68,29.28a1.49,1.49,0,0,0-.94.66,1.53,1.53,0,0,0-.19,1.14,1.5,1.5,0,1,0,2.27-1.61,1.53,1.53,0,0,0-1.14-.19Z" transform="translate(88.17 34.67)"></path><path d="M1729.21,40.8a2.12,2.12,0,0,1-1.58,2.53l-2.06.47-1.84-8a1.51,1.51,0,1,0-2.94.68l1.85,8-4.41,1a2.12,2.12,0,0,1-2.53-1.58l-7.17-31.12L1722,9.68l7.17,31.12ZM1709.53,6.38l8.81-2,.67,2.93-8.81,2-.67-2.93Zm13.3,0-.88.21-1-4.41a1.5,1.5,0,0,0-1.8-1.13l-11.75,2.71a1.51,1.51,0,0,0-1.13,1.8l1,4.41-.88.2a1.51,1.51,0,0,0-1.13,1.81l7.51,32.59a5.12,5.12,0,0,0,6.14,3.84l9.39-2.17a5.12,5.12,0,0,0,3.84-6.14l-7.51-32.59a1.5,1.5,0,0,0-1.8-1.13Z" transform="translate(88.17 34.67)"></path><path d="M1811.19,208.83a1.21,1.21,0,0,1-.42-1.65,14.64,14.64,0,0,1,20-5.15,1.2,1.2,0,1,1-1.21,2.07,12.23,12.23,0,0,0-16.74,4.3,1.2,1.2,0,0,1-1.64.43Z" transform="translate(88.17 34.67)"></path><path d="M1847.2,224a4.09,4.09,0,0,0-4.84.5l-1.95-1.15a19.14,19.14,0,0,0-32.9-19.43l-2-1.15a4.09,4.09,0,1,0-6.06,2.56,4,4,0,0,0,2,.57,23.63,23.63,0,0,0,7.21,27.22l-6.1,10.34-4-2.36a1.2,1.2,0,0,0-1.22,2.06l13.6,8a1.2,1.2,0,1,0,1.22-2.06l-4-2.36,6.11-10.34a23.63,23.63,0,0,0,27.32-6.82,4.08,4.08,0,0,0,7,0,4.09,4.09,0,0,0-1.44-5.6Zm-46.48-20.73a1.7,1.7,0,1,1,2.33-.6,1.69,1.69,0,0,1-2.33.6Zm31.15-3a16.75,16.75,0,1,1-22.94,5.9,16.75,16.75,0,0,1,22.94-5.9Zm-25.76,45.3-1.48-.87,6-10.16c.24.16.48.31.73.45l.75.43-6,10.15Zm6.47-12.64a21.21,21.21,0,0,1-8-28l1.76,1a19.14,19.14,0,0,0,32.9,19.43l1.77,1a21.22,21.22,0,0,1-28.38,6.45Zm31.68-3.93a1.68,1.68,0,0,1-.6-2.32,1.69,1.69,0,1,1,.6,2.32Z" transform="translate(88.17 34.67)"></path><path d="M1374.69,235.36a1.34,1.34,0,0,1-1.65.68l-18.68-6.94a1.33,1.33,0,0,1-.82-1.59l10.27-36.63,12.9,4.79a1.32,1.32,0,0,0,.92-2.48l-13.1-4.87,1-3.57,28,10.38-18.82,40.23Zm-2.24,4.8-4.83,10.32a1.64,1.64,0,0,1-2,.84L1350,245.55a1.63,1.63,0,0,1-1-2l3.07-11a1.31,1.31,0,0,1,.68-.83,1.35,1.35,0,0,1,1.06-.06l17.86,6.63a1.29,1.29,0,0,1,.76.74,1.35,1.35,0,0,1,0,1.06Zm23.5-46a2.67,2.67,0,0,0-1.52-1.48l-28-10.38a2.65,2.65,0,0,0-2.12.12A2.69,2.69,0,0,0,1363,184c-5.62,20.06-11.15,39.56-16.62,59.53a4.28,4.28,0,0,0,2.76,4.46l15.54,5.77a4.28,4.28,0,0,0,5.35-2.19l4.83-10.32a4,4,0,0,0,.2-2.84,4,4,0,0,0,2-2l18.81-40.23a2.65,2.65,0,0,0,0-2.12Z" transform="translate(88.17 34.67)"></path><path d="M1378.31,213.74a7.15,7.15,0,1,1-4.21-9.19,7.15,7.15,0,0,1,4.21,9.19Zm-15.89-5.89a9.8,9.8,0,1,0,12.6-5.78,9.8,9.8,0,0,0-12.6,5.78Z" transform="translate(88.17 34.67)"></path><path d="M1381.17,197.32a1.31,1.31,0,0,0,1,0,1.29,1.29,0,0,0,.69-.74,1.33,1.33,0,0,0-.78-1.7,1.33,1.33,0,0,0-1.7.78,1.31,1.31,0,0,0,0,1,1.29,1.29,0,0,0,.74.69Z" transform="translate(88.17 34.67)"></path><path d="M281.2,125a25.46,25.46,0,1,1,25.47-25.45A25.48,25.48,0,0,1,281.2,125Zm0-48.19a22.74,22.74,0,1,0,22.74,22.74A22.76,22.76,0,0,0,281.2,76.83Zm0,0" transform="translate(88.17 34.67)"></path><path d="M291.12,85.12a1.24,1.24,0,0,0-1.72.27l-19.74,27.15a1.24,1.24,0,0,0,.27,1.73,1.28,1.28,0,0,0,.72.23,1.21,1.21,0,0,0,1-.51L291.4,86.85a1.24,1.24,0,0,0-.28-1.73Zm0,0" transform="translate(88.17 34.67)"></path><path d="M274.36,96a6.17,6.17,0,1,0-6.17-6.17A6.17,6.17,0,0,0,274.36,96Zm0-9.87a3.71,3.71,0,1,1-3.71,3.7,3.7,3.7,0,0,1,3.71-3.7Zm0,0" transform="translate(88.17 34.67)"></path><path d="M287.93,103.4a6.17,6.17,0,1,0,6.17,6.17,6.17,6.17,0,0,0-6.17-6.17Zm0,9.87a3.7,3.7,0,1,1,3.7-3.7,3.7,3.7,0,0,1-3.7,3.7Zm0,0" transform="translate(88.17 34.67)"></path><path d="M526.85,244.86a25.46,25.46,0,1,1,25.46-25.45,25.48,25.48,0,0,1-25.46,25.45Zm0-48.19a22.74,22.74,0,1,0,22.74,22.74,22.76,22.76,0,0,0-22.74-22.74Zm0,0" transform="translate(88.17 34.67)"></path><path d="M536.77,205a1.25,1.25,0,0,0-1.72.27l-19.74,27.15a1.23,1.23,0,0,0,.27,1.73,1.26,1.26,0,0,0,.72.23,1.23,1.23,0,0,0,1-.5L537,206.69a1.24,1.24,0,0,0-.27-1.73Zm0,0" transform="translate(88.17 34.67)"></path><path d="M520,215.83a6.17,6.17,0,1,0-6.17-6.17,6.17,6.17,0,0,0,6.17,6.17Zm0-9.87a3.71,3.71,0,1,1-3.71,3.7A3.7,3.7,0,0,1,520,206Zm0,0" transform="translate(88.17 34.67)"></path><path d="M533.57,223.24a6.17,6.17,0,1,0,6.17,6.17,6.17,6.17,0,0,0-6.17-6.17Zm0,9.87a3.7,3.7,0,1,1,3.71-3.7,3.71,3.71,0,0,1-3.71,3.7Zm0,0" transform="translate(88.17 34.67)"></path><path d="M-62.72,237.87a25.48,25.48,0,0,1-25.45-25.45A25.48,25.48,0,0,1-62.72,187a25.49,25.49,0,0,1,25.46,25.46,25.49,25.49,0,0,1-25.46,25.45Zm0-48.19a22.76,22.76,0,0,0-22.73,22.74,22.75,22.75,0,0,0,22.73,22.73A22.76,22.76,0,0,0-40,212.42a22.76,22.76,0,0,0-22.74-22.74Zm0,0" transform="translate(88.17 34.67)"></path><path d="M-52.81,198a1.23,1.23,0,0,0-1.72.27L-74.27,225.4a1.23,1.23,0,0,0,.27,1.72,1.23,1.23,0,0,0,.73.24,1.26,1.26,0,0,0,1-.51l19.74-27.15a1.22,1.22,0,0,0-.28-1.72Zm0,0" transform="translate(88.17 34.67)"></path><path d="M-69.57,208.85a6.17,6.17,0,0,0,6.17-6.17,6.17,6.17,0,0,0-6.17-6.17,6.17,6.17,0,0,0-6.17,6.17,6.17,6.17,0,0,0,6.17,6.17Zm0-9.87a3.7,3.7,0,0,1,3.7,3.7,3.7,3.7,0,0,1-3.7,3.7,3.7,3.7,0,0,1-3.7-3.7,3.7,3.7,0,0,1,3.7-3.7Zm0,0" transform="translate(88.17 34.67)"></path><path d="M-56,216.25a6.17,6.17,0,0,0-6.17,6.17A6.17,6.17,0,0,0-56,228.59a6.17,6.17,0,0,0,6.17-6.17A6.17,6.17,0,0,0-56,216.25Zm0,9.87a3.7,3.7,0,0,1-3.7-3.7,3.7,3.7,0,0,1,3.7-3.7,3.71,3.71,0,0,1,3.71,3.7,3.71,3.71,0,0,1-3.71,3.7Zm0,0" transform="translate(88.17 34.67)"></path><path d="M1593.7,136.14a25.46,25.46,0,1,1,25.46-25.45,25.48,25.48,0,0,1-25.46,25.45Zm0-48.19a22.74,22.74,0,1,0,22.74,22.74A22.76,22.76,0,0,0,1593.7,88Zm0,0" transform="translate(88.17 34.67)"></path><path d="M1603.62,96.25a1.23,1.23,0,0,0-1.72.27l-19.74,27.15a1.21,1.21,0,0,0,.27,1.72,1.2,1.2,0,0,0,.72.24,1.24,1.24,0,0,0,1-.51L1603.9,98a1.24,1.24,0,0,0-.28-1.72Zm0,0" transform="translate(88.17 34.67)"></path><path d="M1586.86,107.12a6.17,6.17,0,1,0-6.17-6.17,6.17,6.17,0,0,0,6.17,6.17Zm0-9.87a3.7,3.7,0,1,1-3.71,3.7,3.7,3.7,0,0,1,3.71-3.7Zm0,0" transform="translate(88.17 34.67)"></path><path d="M1600.42,114.52a6.17,6.17,0,1,0,6.17,6.17,6.17,6.17,0,0,0-6.17-6.17Zm0,9.87a3.7,3.7,0,1,1,3.71-3.7,3.7,3.7,0,0,1-3.71,3.7Zm0,0" transform="translate(88.17 34.67)"></path><path d="M1971.39,249.94a25.46,25.46,0,1,1,25.46-25.45,25.49,25.49,0,0,1-25.46,25.45Zm0-48.19a22.74,22.74,0,1,0,22.74,22.74,22.76,22.76,0,0,0-22.74-22.74Zm0,0" transform="translate(88.17 34.67)"></path><path d="M1981.3,210.05a1.23,1.23,0,0,0-1.72.27l-19.74,27.15a1.24,1.24,0,0,0,1,2,1.27,1.27,0,0,0,1-.51l19.74-27.15a1.22,1.22,0,0,0-.28-1.72Zm0,0" transform="translate(88.17 34.67)"></path><path d="M1964.54,220.92a6.17,6.17,0,1,0-6.17-6.17,6.17,6.17,0,0,0,6.17,6.17Zm0-9.87a3.7,3.7,0,1,1-3.71,3.7,3.7,3.7,0,0,1,3.71-3.7Zm0,0" transform="translate(88.17 34.67)"></path><path d="M1978.11,228.32a6.17,6.17,0,1,0,6.17,6.17,6.17,6.17,0,0,0-6.17-6.17Zm0,9.87a3.7,3.7,0,1,1,3.7-3.7,3.7,3.7,0,0,1-3.7,3.7Zm0,0" transform="translate(88.17 34.67)"></path></svg> 